<?xml version="1.0" encoding="iso-8859-1"?>
<!-- Generator: Adobe Illustrator 17.1.0, SVG Export Plug-In . SVG Version: 6.00 Build 0)  -->
<!DOCTYPE svg PUBLIC "-//W3C//DTD SVG 1.1//EN" "http://www.w3.org/Graphics/SVG/1.1/DTD/svg11.dtd">
<svg version="1.1" id="Capa_1" xmlns="http://www.w3.org/2000/svg" xmlns:xlink="http://www.w3.org/1999/xlink" x="0px" y="0px"
	 viewBox="0 0 200.563 200.563" style="enable-background:new 0 0 200.563 200.563;" xml:space="preserve">
<path d="M181.192,43.885h-37.017v-6.446c0-11.08-7.85-20.095-17.497-20.095H73.884c-9.647,0-17.496,9.015-17.496,20.095v6.446
	H19.371C8.689,43.885,0,52.575,0,63.256v100.592c0,10.682,8.689,19.371,19.371,19.371h161.821c10.682,0,19.371-8.689,19.371-19.371
	V63.256C200.563,52.575,191.874,43.885,181.192,43.885z M71.388,37.439c0-3.17,1.733-5.095,2.496-5.095h52.795
	c0.725,0,2.497,1.785,2.497,5.095v6.446H71.388V37.439z M181.91,90.89l-65.063,23.197v11.223c0,4.143-3.357,7.5-7.5,7.5h-8.965
	h-8.966c-4.143,0-7.5-3.357-7.5-7.5v-11.215L18.659,90.892c-3.902-1.388-5.941-5.676-4.554-9.579
	c1.387-3.903,5.675-5.944,9.579-4.554l76.702,27.272l76.486-27.271c3.897-1.392,8.191,0.644,9.583,4.546
	C187.847,85.208,185.812,89.499,181.91,90.89z"/>
<g>
</g>
<g>
</g>
<g>
</g>
<g>
</g>
<g>
</g>
<g>
</g>
<g>
</g>
<g>
</g>
<g>
</g>
<g>
</g>
<g>
</g>
<g>
</g>
<g>
</g>
<g>
</g>
<g>
</g>
</svg>
